<svg width="51" height="73" viewBox="0 0 51 73" fill="none" xmlns="http://www.w3.org/2000/svg">
    <path d="M47.6422 23.0808C47.5077 23.0808 47.2921 23.0885 47.1548 23.1048C45.3963 23.3093 44.0286 24.8703 44.0286 26.6405V37.5851C44.0286 38.4663 43.5698 39.2669 42.6886 39.2669H42.66C41.7065 39.2669 40.6724 38.4077 40.6724 37.4542V19.7997C40.6724 18.0296 39.5147 16.4688 37.7562 16.2641C37.6188 16.2481 37.3864 16.2403 37.2522 16.2403C35.3519 16.2401 33.7016 17.7949 33.7016 19.6952V37.5175C33.7016 38.4361 33.0832 39.1807 32.1648 39.1807C31.2328 39.1807 30.6033 38.4247 30.6033 37.4927V14.8247C30.6033 13.0543 29.3498 11.4935 27.591 11.289C27.4536 11.2728 27.2693 11.265 27.1348 11.265C25.2345 11.2648 23.6319 12.8196 23.6319 14.7198V37.4947C23.6319 38.426 22.8744 39.1807 21.9434 39.1807C21.0234 39.1807 20.2755 38.4351 20.2755 37.5154V19.7997C20.2755 18.0296 19.0553 16.4688 17.2965 16.2641C17.1591 16.2481 16.958 16.2403 16.8237 16.2403C14.9235 16.2401 13.3043 17.7949 13.3043 19.6952V45.4119C13.3043 46.3659 12.6217 47.0033 11.804 47.0033C11.4276 47.0033 11.0924 46.8683 10.7733 46.5667L6.69908 42.6967C6.03399 42.0316 5.16957 41.6991 4.29276 41.6991C3.41595 41.6991 2.54559 42.0316 1.8805 42.6967C0.550304 44.0267 0.553402 46.2035 1.88359 47.5337L16.4473 66.7404C16.4488 66.7424 16.4506 66.745 16.4509 66.7473L16.8155 71.5429C16.8725 72.2997 17.5035 72.8313 18.2618 72.8313C18.2626 72.8313 18.2631 72.8313 18.2639 72.8313L43.6829 72.8644C44.41 72.8633 45.0242 72.3506 45.1192 71.6294L45.7825 66.5901C45.8107 66.3737 45.7918 66.1752 45.9098 65.9916C49.787 59.9523 51 49.9803 51 39.181V26.5359C50.9997 24.6356 49.5423 23.0808 47.6422 23.0808Z" fill="#FF5E5E"/>
    <path d="M10.1704 16.7841C10.3935 16.7841 10.6202 16.7356 10.835 16.6336C11.6075 16.2659 11.9359 15.3416 11.5683 14.5691C11.2107 13.8178 11.0294 13.0422 11.0294 12.264C11.0294 7.29566 18.4266 3.09827 27.1825 3.09827C35.9385 3.09827 43.3356 7.29566 43.3356 12.264C43.3356 13.0419 43.1544 13.8175 42.7968 14.5689C42.4291 15.3414 42.7575 16.2657 43.53 16.6333C44.302 17.0002 45.2271 16.6728 45.5945 15.9001C46.1514 14.7294 46.4339 13.5061 46.4339 12.264C46.4339 5.38686 37.9777 0 27.1825 0C16.3874 0 7.93115 5.38686 7.93115 12.264C7.93115 13.5064 8.21361 14.7297 8.77053 15.9003C9.03594 16.458 9.59131 16.7841 10.1704 16.7841Z" fill="#FFC908"/>
</svg>
